<mxfile host="app.diagrams.net" modified="2023-09-07T16:36:48.959Z" agent="Mozilla/5.0 (Windows NT 10.0; Win64; x64) AppleWebKit/537.36 (KHTML, like Gecko) Chrome/114.0.0.0 YaBrowser/23.7.4.971 Yowser/2.5 Safari/537.36" version="21.7.2" etag="r9JRDVAF5Aku_YDpYsl7" type="github">
  <diagram name="Страница — 1" id="cfQ3ccsHF4puK46o-2T4">
    <mxGraphModel>
      <root>
        <mxCell id="0" />
        <mxCell id="1" parent="0" />
      </root>
    </mxGraphModel>
  </diagram>
</mxfile>
